<svg xmlns="http://www.w3.org/2000/svg" xmlns:xlink="http://www.w3.org/1999/xlink" viewBox="0 0 234.75 140.49"><defs><symbol id="a" data-name="icon_logo" viewBox="0 0 234.75 140.49"><path fill="#e8473f" d="M0 0h78.43v140.38H0z"/><path fill="#801624" opacity=".5" d="M78.43 56.83L42.52 20.92l-6.7 9.87L78.43 73.5V56.83zm0 31.54L42.57 52.51l-6.75 73.16 14.67 14.71 27.94.11V88.37z"/><path opacity=".5" d="M78.47 66.59l-35.9-35.9-6.75.1L78.43 73.5l.04-6.91zm-21.03 73.9l-14.87-14.87-6.75.05 14.67 14.71 6.95.11z" fill="#801624"/><path fill="none" stroke="#fff" stroke-miterlimit="10" stroke-width="6.655" d="M39.22 125.67V52.5m0-21.71v-9.85"/><path d="M97.63 51.44l11.69.07-.48 74.41-11.69-.08zm52.74 47.09l-.06 9.89c-.08 11.91-6.07 18.67-17.56 18.6s-17.39-6.92-17.31-18.82l.25-38.69c.08-11.91 6.07-18.67 17.56-18.6s17.39 6.92 17.31 18.82v7.23l-11.06-.07.05-8c0-5.31-2.29-7.35-6-7.37s-6.07 2-6.11 7.3l-.31 40.18c0 5.31 2.29 7.24 6 7.27s6.07-1.87 6.11-7.19l.07-10.63zm5.28-28.7c.08-11.91 6.39-18.67 17.87-18.59s17.71 6.92 17.63 18.83l-.25 38.69c-.08 11.91-6.39 18.67-17.88 18.59s-17.71-6.92-17.63-18.83zm11.44 39.52c0 5.31 2.29 7.35 6 7.37s6.07-2 6.11-7.3l.26-40.19c0-5.31-2.29-7.35-6-7.37s-6.07 2-6.11 7.3zm41.16-36.45H208l-.35 53.9-10.52-.07.48-74.41 14.67.1L223.83 97h.17l.29-44.54 10.42.07-.45 74.47-12-.08z" fill="#ececec"/></symbol></defs><title>Asset 2</title><use width="234.75" height="140.49" xlink:href="#a" data-name="Layer 2"/></svg>