<svg xmlns="http://www.w3.org/2000/svg" xmlns:xlink="http://www.w3.org/1999/xlink" viewBox="0 0 234.75 140.49"><defs><symbol id="icon_logo" data-name="icon_logo" viewBox="0 0 234.75 140.49"><rect width="78.43" height="140.38" style="fill:#e8473f"/><polygon points="78.43 56.83 42.52 20.92 35.82 30.79 78.43 73.5 78.43 56.83" style="fill:#801624;opacity:0.5"/><polygon points="78.43 88.37 42.57 52.51 35.82 125.67 50.49 140.38 78.43 140.49 78.43 88.37" style="fill:#801624;opacity:0.5"/><g style="opacity:0.5"><polygon points="78.47 66.59 42.57 30.69 35.82 30.79 78.43 73.5 78.47 66.59" style="fill:#801624;opacity:0.5"/><polygon points="57.44 140.49 42.57 125.62 35.82 125.67 50.49 140.38 57.44 140.49" style="fill:#801624;opacity:0.5"/></g><line x1="39.22" y1="125.67" x2="39.22" y2="52.5" style="fill:none;stroke:#fff;stroke-miterlimit:10;stroke-width:6.65540177137047px"/><line x1="39.22" y1="30.79" x2="39.22" y2="20.94" style="fill:none;stroke:#fff;stroke-miterlimit:10;stroke-width:6.65540177137047px"/><path d="M97.63,51.44l11.69.07-.48,74.41-11.69-.08Z" style="fill:#ececec"/><path d="M150.37,98.53l-.06,9.89c-.08,11.91-6.07,18.67-17.56,18.6s-17.39-6.92-17.31-18.82l.25-38.69c.08-11.91,6.07-18.67,17.56-18.6s17.39,6.92,17.31,18.82l0,7.23-11.06-.07.05-8c0-5.31-2.29-7.35-6-7.37s-6.07,2-6.11,7.3L127.13,109c0,5.31,2.29,7.24,6,7.27s6.07-1.87,6.11-7.19l.07-10.63Z" style="fill:#ececec"/><path d="M155.65,69.83c.08-11.91,6.39-18.67,17.87-18.59s17.71,6.92,17.63,18.83l-.25,38.69c-.08,11.91-6.39,18.67-17.88,18.59s-17.71-6.92-17.63-18.83Zm11.44,39.52c0,5.31,2.29,7.35,6,7.37s6.07-2,6.11-7.3l.26-40.19c0-5.31-2.29-7.35-6-7.37s-6.07,2-6.11,7.3Z" style="fill:#ececec"/><path d="M208.25,72.9H208l-.35,53.9-10.52-.07.48-74.41,14.67.1L223.83,97H224l.29-44.54,10.42.07L234.26,127l-12-.08Z" style="fill:#ececec"/></symbol></defs><title>Asset 2</title><g id="Layer_2" data-name="Layer 2"><g id="Artwork"><use width="234.75" height="140.49" xlink:href="#icon_logo"/></g></g></svg>