<svg xmlns="http://www.w3.org/2000/svg" xmlns:xlink="http://www.w3.org/1999/xlink" viewBox="0 0 118.92 64.28"><defs><symbol id="munroek_logo" data-name="munroek_logo" viewBox="0 0 118.92 64.28"><path d="M13.45,64.13V49.62l-5.34,12H6.77l-5.44-12V64.13H0V46.53H1.33L7.47,60.1l6-13.57h1.33v17.6Z" style="fill:#fff"/><path d="M26,64.28a5.71,5.71,0,0,1-6-5.86V46.53h1.33V58.25A4.5,4.5,0,0,0,26,63.09a4.5,4.5,0,0,0,4.7-4.84V46.53H32V58.42A5.71,5.71,0,0,1,26,64.28Z" style="fill:#fff"/><path d="M48.72,64.13,38.56,48.83v15.3H37.22V46.53h1.33L48.72,61.78V46.53h1.33v17.6Z" style="fill:#fff"/><path d="M65.87,64.13,61.67,56H56.82v8.11H55.49V46.53h6.7c2.87,0,5,1.66,5,4.72A4.55,4.55,0,0,1,63.18,56l4.25,8.13ZM62,47.72H56.82v7.12H62c2.25,0,3.88-1.14,3.88-3.56S64.26,47.72,62,47.72Z" style="fill:#fff"/><path d="M81.47,62.47a6.27,6.27,0,0,1-8.8,0C71.06,60.87,71,59.31,71,55.33s0-5.54,1.63-7.14a6.27,6.27,0,0,1,8.8,0c1.61,1.61,1.63,3.16,1.63,7.14S83.07,60.87,81.47,62.47ZM80.4,48.93a4.78,4.78,0,0,0-6.67,0c-1.26,1.26-1.36,2.62-1.36,6.4s.1,5.14,1.36,6.4a4.78,4.78,0,0,0,6.67,0c1.26-1.26,1.36-2.62,1.36-6.4S81.66,50.19,80.4,48.93Z" style="fill:#fff"/><path d="M87.84,64.13V46.53H98.52v1.19H89.18v6.95h8v1.19h-8v7.09h9.34v1.19Z" style="fill:#fff"/><path d="M114.92,64.13l-4.52-8-2.27,2.72v5.29h-3.44V46.53h3.44v7.66l6.2-7.66h4.18l-5.83,7,6.25,10.6Z" style="fill:#e5007e"/><path d="M61,25.45a29.32,29.32,0,0,1-15.51,2L47,27.27a30.52,30.52,0,0,1-7.09-.88s3.47.62,4.87.1a23,23,0,0,1-9.45-2.07s2.88.95,3.47.62a21.46,21.46,0,0,0,6.62.36,22.88,22.88,0,0,1-5.23-.82l.44,0s4,.71,5.8.26c0,0-6.8-.44-10.87-2.85a30.92,30.92,0,0,0,10.37,2.43s-5.2-.68-7.25-2c0,0,5.47,1.89,7.84,1.53a35.84,35.84,0,0,1-9.16-2.7l-.19-.18a39.86,39.86,0,0,0,10.9,2.83,23.89,23.89,0,0,1-7.12-2.8s5.83,2.35,9.43,2.26a7.62,7.62,0,0,1-2.91-.85l.43-.1a12.15,12.15,0,0,1-2.7-1.17,7.34,7.34,0,0,0,3.18.69,5.16,5.16,0,0,0,1.82.22,5.51,5.51,0,0,1,2.2.34l.28,0s-8.59-4.07-17-3.33l.17-.13A34.46,34.46,0,0,1,47.9,20.42s4.24,1,4.94,1.05a24.46,24.46,0,0,0-8.31-2.62A38.58,38.58,0,0,1,54,20.67a24.7,24.7,0,0,0-6.64-1.91,27.24,27.24,0,0,1,9,1.11l3.41,1,6,.55-.45,2.24L61.2,25Z" style="fill:#bce3f9"/><path d="M61.78,24.78s-4.83,4-14.67,3.37c0,0,4,.86,10.43-.79,0,0-3.59,2.31-11.47,2.75,0,0,6.76,1.14,15.18-3.19l3.57-2L62.69,24Z" style="fill:#bce3f9"/><path d="M62.72,24s-9.55-3.16-15.1-6.35a25.86,25.86,0,0,0-5.84-1.75,19.44,19.44,0,0,1,6.9,1.67,33.84,33.84,0,0,0,5.27,2,26.85,26.85,0,0,0-7.85-3.79l-.29-.34a19.59,19.59,0,0,0-5.09-1.79s4.09-.13,14,5.25a16.51,16.51,0,0,0-3.64-2.24,26.24,26.24,0,0,1,5.2,2.16,15.06,15.06,0,0,0-5.12-2.88l.13-.13s-2.18-2-8.58-4.1c0,0,4.9.81,13.13,5.49l.28.07s-2.91-3.4-13.87-7.39L42,9.65s0-.19-2.06-.88A50,50,0,0,1,57.33,17S55.07,14.08,47,9.94l.21,0a58.64,58.64,0,0,1,8.34,4.91,10,10,0,0,0,2.25,1.23s1.26.45,1.56,1c0,0-.22-1-2.38-2a50.71,50.71,0,0,1-8.67-6A4.63,4.63,0,0,0,46,7.92s.87-.25,2.41,1c0,0,6,4.91,9,5.72,0,0-1.2-1.81-5.7-4a19.39,19.39,0,0,1,4.32,2l.16-.1.33.15a13.07,13.07,0,0,0-4.49-3.42s2.44.57,5.35,3.74A2.75,2.75,0,0,0,59,14s-1.22-3-5.54-5.13A16.28,16.28,0,0,1,59.9,14l1.4,1.39,2.42,2,.18,4.3Z" style="fill:#bce3f9"/><path d="M70.28,30.67a29.32,29.32,0,0,1-14.78,5.09l1.38-.44a30.52,30.52,0,0,1-7.12.59s3.52-.1,4.79-.9a23,23,0,0,1-9.67-.09s3,.34,3.52-.1a21.47,21.47,0,0,0,6.55-1,22.88,22.88,0,0,1-5.29.26l.43-.11s4-.11,5.74-.93c0,0-6.75,1-11.22-.57a30.91,30.91,0,0,0,10.64.26s-5.23.39-7.51-.47c0,0,5.74.73,8-.1a35.83,35.83,0,0,1-9.52-.77L46,31.24a39.86,39.86,0,0,0,11.25.54,23.9,23.9,0,0,1-7.54-1.29s6.18,1.11,9.7.29a7.62,7.62,0,0,1-3-.24l.4-.18a12.15,12.15,0,0,1-2.88-.59,7.34,7.34,0,0,0,3.26,0A5.16,5.16,0,0,0,59,29.63a5.51,5.51,0,0,1,2.22-.11l.26-.09s-9.24-2.23-17.34.21l.14-.16a34.46,34.46,0,0,1,12.13-1.05s4.36.16,5,0a24.46,24.46,0,0,0-8.67-.87,38.58,38.58,0,0,1,9.68-.17,24.69,24.69,0,0,0-6.89-.51,27.24,27.24,0,0,1,9-.74l3.54.26,6-.69V28l-3.83,2.17Z" style="fill:#bce3f9"/><path d="M62.35,20.42a56.94,56.94,0,0,1-20.91-6l1.81,1.55A39.68,39.68,0,0,1,24.76,3l.2.51S30.43,13,47.3,19.49c0,0-8.78-2.22-14.3-5.78l.05.33a17,17,0,0,1-5.59-3.85l.14.35s10.21,11,36.2,11.51l.24-1.17Z" style="fill:#e5007e"/><path d="M61.74,22A50.53,50.53,0,0,1,33.06,11.44l.41.19a49.82,49.82,0,0,0,25.57,9l3,.27Z" style="fill:#c2004c"/><path d="M56.74,20.36a45,45,0,0,1-12.8-4.08l-.57-.64s4.83,2.84,14,4.18l1.57.3Z" style="fill:#ef87b5"/><path d="M53.48,37a6.07,6.07,0,0,0,.67,1.51A10.39,10.39,0,0,1,48.43,35c-3.76-4.85.17-9.73.17-9.73,5.8-7.34,15.65-2.64,15.65-2.64,2.44,1,5.86,2.68,8.06,3.77l.08-.17.45-.94c-2.39-1.18-5.52-2.68-7.87-3.66,0,0-11.11-5.3-17.64,3,0,0-5.79,7.2,2.19,13.3A15.17,15.17,0,0,0,59.73,40l.49-.12C55,39.29,53.48,37,53.48,37Z" style="fill:#fff"/><path d="M84,35.35s-.53.44-1.18-.31c0,0-1.37-1.7-1.81-2.07a2.09,2.09,0,0,0-.61-.39,11.36,11.36,0,0,0-.69-1.12,6.07,6.07,0,0,1,2.2.43A13.42,13.42,0,0,1,84,34.21S84.5,34.91,84,35.35Z" style="fill:#fff"/><path d="M59.24,39.94A11.76,11.76,0,0,1,54,37.86a11.76,11.76,0,0,0,.72,1S46.94,37.59,46.63,31l-.09.4v0s-.27,4.88,6.43,7.51A18.6,18.6,0,0,0,59.24,39.94Z" style="fill:#777776"/><path d="M48.23,24c6.38-6.61,15.56-2.48,15.56-2.48a10.57,10.57,0,0,0-1.84-.21c-9-2.85-13.94,3.1-13.94,3.1Z" style="fill:#777776"/><path d="M81.31,31.88a7.47,7.47,0,0,1,2.58,2.48.65.65,0,0,1-.09.83s-.3.27-.77-.24c0,0,.47-1.28-1.59-2.88Z" style="fill:#777776"/><path d="M66.76,16.43A40,40,0,0,0,49.3,4.21L50.95,5.3a41.6,41.6,0,0,0-9.12-3.44s4.58,1.45,5.94,3c0,0-6.24-3.42-12.71-3.51,0,0,4.08.69,4.58,1.45,0,0,5.3,1.49,8.21,3.77,0,0-4.72-2.17-6.83-2.33l.52.31S46.75,6.18,48.7,7.9c0,0-8.48-3.79-14.92-3.46,0,0,7.79.51,14,3.66,0,0-6.7-2.48-10-2.2,0,0,7.8,1.2,10.43,3.13A48.86,48.86,0,0,0,35.48,6.46l-.34.1a54.34,54.34,0,0,1,15,3.51A32.58,32.58,0,0,0,39.72,8.92s8.52.87,12.82,3.26a10.38,10.38,0,0,0-4.05-.82l.45.39a16.56,16.56,0,0,0-4-.3s2.93.18,4.28,1.19a7,7,0,0,1,2.34.9,7.52,7.52,0,0,0,2.87,1l.31.21S41.8,14.19,32.09,8l.12.26a47,47,0,0,0,15.5,5.93s5.77,1.43,6.63,1.87A33.35,33.35,0,0,1,42.65,13.9a52.59,52.59,0,0,0,12.63,3.85,33.67,33.67,0,0,1-9.22-1.91A37.15,37.15,0,0,0,57.6,20.2l4.74,1L70,24.36l.87-3-4.2-4.28Z" style="fill:#0077bf"/><path d="M67.22,17.7S63.92,9.85,51.67,4.32c0,0,5.36,1.5,12.08,7.58,0,0-2.86-5.06-12.09-10.6,0,0,8.88,2.92,16.28,13.49l3,4.69-3.17-.23Z" style="fill:#0077bf"/><path d="M71.32,23.69s-13.53-2.25-22.25-1.93a35.26,35.26,0,0,1-8.15-1.6,26.51,26.51,0,0,0,9.38,2.37,46.13,46.13,0,0,1,7.64.93A36.6,36.6,0,0,1,46.06,23l-.56.23a26.7,26.7,0,0,1-7.28-1.07s4.85,2.75,20.26,2.58a22.51,22.51,0,0,1-5.81.39,35.77,35.77,0,0,0,7.65.7,20.53,20.53,0,0,1-8,.21l.08.25s-3.92,1-13-.5c0,0,6.42,2.14,19.33,1.71l.39.1s-5.68,2.25-21.42.1l-.44.12s-.06.26-3-.25A68.1,68.1,0,0,0,60.4,28.67s-4.59,2.11-17,2l.24.15a79.94,79.94,0,0,0,13.19-.63,13.62,13.62,0,0,1,3.49-.05,4.77,4.77,0,0,0,2.53-.24s-.91,1.1-4.16.94c0,0-8.63.15-14.29,1.77A6.32,6.32,0,0,1,41,32.47s.89.86,3.52.37c0,0,10.39-2.09,14.51-1.17,0,0-2.59,1.42-9.38,1.16a26.43,26.43,0,0,0,6.51.28l.13.22.5,0a17.82,17.82,0,0,1-7.59,1.28s3.31.86,8.83-1.11a3.75,3.75,0,0,1,2.46-.17S57.13,36.14,50.53,36a22.19,22.19,0,0,0,11-2l2.57-.78,4.2-.88,2.95-5.08Z" style="fill:#0077bf"/><path d="M68.48,19.1A33.24,33.24,0,0,0,50.5,8s8.36,2.62,12,7a22.16,22.16,0,0,0-10.64-4.87S59,11.91,61.6,15.48a23.32,23.32,0,0,0-9.29-3.3s9.61,2.74,11.23,5.43A33,33,0,0,0,53.21,15s10.39,2,13.05,5.1A24.53,24.53,0,0,0,55,16.26s7.46,1.25,10.5,4.15l2.14,1.35,3.57,1.84Z" style="fill:#00b4ec"/><path d="M62.9,20s-6.05-.49-9.4-1.73c0,0,3.91,1.93,11.74,2.81Z" style="fill:#00b4ec"/><path d="M64.55,22.61a16,16,0,0,1-5.56.87s1.37.75,6.61.45a22,22,0,0,1-7.7,1.57,25.47,25.47,0,0,0,7.65-.07,32.09,32.09,0,0,1-7.13,1.3,24.45,24.45,0,0,0,8.74.33l2.92-.33.36-1.65Z" style="fill:#00b4ec"/><path d="M64.94,28.24a11.91,11.91,0,0,1-4.6,1.42s4.4.13,6.76-1.26Z" style="fill:#00b4ec"/><path d="M66,28.23s-1.42,2-5.51,3.26c0,0,5.51.81,6.77-3.17Z" style="fill:#00b4ec"/><path d="M72.72,21.38S68,12.45,62.64,8a29.49,29.49,0,0,1,8.49,9.32S70,12.62,64.2,7.93c0,0,5.28,2.31,10.43,12.18l-1.05,1.66Z" style="fill:#00b4ec"/><path d="M73.54,18.24a30.32,30.32,0,0,0-5.22-8.65s2.91,1.73,5.9,8.32Z" style="fill:#00b4ec"/><path d="M64.25,33.05s-2.56,2.39-9,3.39c0,0,6-.3,10.51-3.12Z" style="fill:#00b4ec"/><path d="M65.87,16.92A39.09,39.09,0,0,0,50.28,7s7.8,3.27,11.27,7A25.12,25.12,0,0,0,49.47,8.92s8.93,1.76,14,7.29Z" style="fill:#043878"/><path d="M70.94,22.36s-4.91-5.23-16.52-7c0,0,10.32,2.1,15,6.75Z" style="fill:#043878"/><path d="M69.6,20.45s-3.47-2.88-12.72-5.13c0,0,7.83,1.21,13,4.82Z" style="fill:#043878"/><path d="M69.78,25.12s-3.17,2.27-16.53,1.67c0,0,7.69,1.08,13.72-.14A24.93,24.93,0,0,1,59.6,29.4s6-.36,9.67-2.75l1.57.18-.06-1.28Z" style="fill:#043878"/><path d="M64.44,22.84s-4.85,2-14.36,1.22a45.42,45.42,0,0,0,14.33-.4s-1.7,1.05-6.19,1.45a27.85,27.85,0,0,0,6.2-.53A29.79,29.79,0,0,1,61,25.4a22.16,22.16,0,0,0,6-.82l-.27-.86Z" style="fill:#043878"/><path d="M68,21.49a32.52,32.52,0,0,0-10.55-4.77s5.33,1.73,7.2,3.46Z" style="fill:#043878"/><path d="M65.88,17.71s-6-5.81-17.57-7.74c0,0,9.61,2.2,12.45,5C60.77,15,65.54,17.73,65.88,17.71Z" style="fill:#043878"/><path d="M65,17.55s-7.66-4.4-15.42-5.32A61.55,61.55,0,0,1,64,17.35Z" style="fill:#043878"/><path d="M65,20.18s-4.86-3.09-13.66-3.86c0,0,7.63,1.17,10.4,3Z" style="fill:#043878"/><path d="M63.19,20.27A37.78,37.78,0,0,1,51.25,17.8s3.65,1.9,12.58,3.62Z" style="fill:#043878"/><path d="M64,22.59s-2.57,1.39-9.55-.2c0,0,5.28,1,6.83-.16h2.47Z" style="fill:#043878"/><path d="M59.59,14.48a19,19,0,0,0-6.69-2.92S57.2,13,57.79,14Z" style="fill:#043878"/><path d="M66.46,16.35a14.79,14.79,0,0,0-3.61-4.8s2.11,1.17,4.72,5.73Z" style="fill:#043878"/><path d="M69.36,28.07s-2.54,3.62-12,5c0,0,6.42-1.26,8.32-3.26a3.09,3.09,0,0,1-3-.44s2.66,1.17,3.46-.69Z" style="fill:#043878"/><path d="M60.68,27.81s-7.84,2.31-20.36.52l-.37.11a59.46,59.46,0,0,0,21.73-.53Z" style="fill:#043878"/><path d="M69.27,25.79a21.23,21.23,0,0,1-8.42.35s6,.39,8-1.17l1.4.59Z" style="fill:#043878"/><path d="M66,31a14.17,14.17,0,0,1-5.63,1.83A15.67,15.67,0,0,0,67.4,32l1.18-.46-.34-1.25Z" style="fill:#043878"/><polygon points="69.31 26.48 68.11 26.5 66.87 30.77 69.66 30.04 70.42 27.72 69.31 26.48" style="fill:#043878"/><path d="M71.66,31.29c.07.34-1,.7-1,.7a13.55,13.55,0,0,0-2.28,1.6c-.67,1.31-1.59,1-1.59,1v-.41c-7.61,4-18.95,3.41-18.95,3.41l-.32-.11C59.15,37.72,64.85,34,64.85,34a4.82,4.82,0,0,0-2.4.4,2.63,2.63,0,0,1-1.57.4c-1.18-.09-4.3-.07-4.3-.07l-.41-.14a9.6,9.6,0,0,0,6.09-1.34L61,32.91c5.51-.35,6.82-1.64,6.82-1.64L68,31a4.31,4.31,0,0,1-3.56.8,2.85,2.85,0,0,0-1.2,0,24.36,24.36,0,0,1-12.71-.06,26.45,26.45,0,0,0,9-.41l.19-.19A7.48,7.48,0,0,0,61.54,31l.17-.27A15.22,15.22,0,0,0,69.06,29a19.9,19.9,0,0,1-7.31-.13l-.27-.44a29.85,29.85,0,0,1-7.85-2.25,28.87,28.87,0,0,0,6.17,1.25l-.46-.35a30.41,30.41,0,0,0,9.63,0,23.77,23.77,0,0,1-5.29-.93l-.44-.31a38.22,38.22,0,0,1-4.77-1.66L58.2,24a41.42,41.42,0,0,0,10.52,2c-2-.36-8.83-2.29-8.83-2.29a31.13,31.13,0,0,1,10.45,2.52c-1.08-1.19-7.45-2.6-7.45-2.6l1.87-.22a5.35,5.35,0,0,0-2.68-.66,48.61,48.61,0,0,1-13.64-2.41l-.14-.14c10.08,2.39,15.12,1.27,15.12,1.27-1-.34-2.19-.71-2.19-.71-2.44-2.08-11.39-3.33-11.39-3.33l-.35-.12a38.61,38.61,0,0,1,11.83,1.79L62,19a52.27,52.27,0,0,1,7.55,2.89l.58.14a36,36,0,0,0-6-3.68l.41-.28c-2.33-2.5-9.13-5-9.13-5a31.25,31.25,0,0,1,8.49,3c-2-2.17-7.13-4.85-7.13-4.85L56.56,11c3.81,1.39,8.18,5.21,8.18,5.21a26.8,26.8,0,0,0-6.28-5l-.08-.5c-2.78-2.75-9-4.93-9-4.93a31.79,31.79,0,0,1,7.54,2.65l-.44.13A54.15,54.15,0,0,1,68.81,18a28.92,28.92,0,0,0-4.66-5.58l.6.08A37.61,37.61,0,0,0,55.26,5v.44C51,2.14,43.62,0,43.62,0,54.76,2.34,58.43,5.41,58.43,5.41l-.5.22a38.51,38.51,0,0,1,15,15.1c-1.9-5.75-8-11-8-11l-.11-.27a30.34,30.34,0,0,1,8.57,10.83c-1-3.87-4.55-7.95-4.55-7.95.15-1.71-4.66-5.16-4.66-5.16L64,7a24.88,24.88,0,0,1,9.72,10.33c.07-1.53-1.31-4-1.31-4a29.84,29.84,0,0,1,4.14,9.63c.44.52.32.63.32.63s-.21.38.28.62l-4,6.41S72.24,31.37,71.66,31.29Z" style="fill:#fff"/><path d="M76.24,24.49a22.39,22.39,0,0,0-2.06-7.2,19.36,19.36,0,0,1,1.08,4.07l-.2.12a8.86,8.86,0,0,1-.21,1.39A18.85,18.85,0,0,0,69.56,12l0,.22s3.68,3.28,4.68,11l.15.35-.2.26S71.38,16.29,62,8.7l-.4-.2a37.9,37.9,0,0,1,6.94,7.17,23,23,0,0,0-2.47-2.22,41,41,0,0,1,6.3,8.07l-.82-.41s2,1.86,2.27,3.44a21.87,21.87,0,0,0-8.53-6l-.36-.06s5.66,2.36,8.74,6.41A40.65,40.65,0,0,0,58.09,18.6l-.32.06S66.54,20,72.94,24.94c0,0-4.52-1.7-9-3.91a70.54,70.54,0,0,0,8.91,4.19s-5.52-1.12-8.3-2.77a22.19,22.19,0,0,0,7.59,3l.41.14s.48.43.15.52a12.06,12.06,0,0,0-4.11-1.29s4,1,3.88,2.33c0,0-2.31,1.42-9.83.93,0,0,3.29.85,9.17-.2a11.37,11.37,0,0,1-2.08.65,15.78,15.78,0,0,0,1.86-.16,23.06,23.06,0,0,1-8.41,2.52,20.84,20.84,0,0,0,7.49-1.72l-.16.23s-.91,2.28-5.77,3.24a10.36,10.36,0,0,0,6-2.73,5.2,5.2,0,0,1-2.5,2.5,6.57,6.57,0,0,0,2.46-1.62s.81-1.21,1.76-.73l3.92-2.39Z" style="fill:#00b4ec"/><path d="M72.68,26.7a43.62,43.62,0,0,1-7.7-.77,42.34,42.34,0,0,0,5,1l-.19.19s1.5,0,2.91-.1Z" style="fill:#0092d5"/><path d="M72,22.86s-2.27-3.17-9.7-7c0,0,7,2.65,10.4,7.58Z" style="fill:#0092d5"/><path d="M68.66,18.67A35.1,35.1,0,0,0,58.5,10.13l.14.27a30.37,30.37,0,0,1,8.58,7.33S68.32,18.42,68.66,18.67Z" style="fill:#0092d5"/><path d="M82,31.94s-.55-.36-.6.31c0,0,0,.4-.35.39a1,1,0,0,0-.15.53s-.2.8-1.08,0c0,0,0,.73-1.23.34a.24.24,0,0,0,0-.34.51.51,0,0,1-.76-.16s-.17-.13-.3,0-.35-.63-.58-.6a.65.65,0,0,0-.05.67,1.23,1.23,0,0,1-.95-.6s-.61.08-.76-.16c0,0-.57.66-.95-.05,0,0-.2-.67-.78.38,0,0-1.13-.14-.75-1.79,0,0-.09-.46-.6,0a1.4,1.4,0,0,1,.8-1.4s.13-.26-.19-.23a1.07,1.07,0,0,0-.59.24,1.27,1.27,0,0,1,1.05-.93s-.37-.46-.77-.23c0,0-.12-.33.2-.34,0,0,.15-.42.47-.43,0,0,.58.05.06-.53,0,0-.24-.59.25-.56,0,0,.85.28.78-.2,0,0-.07-.38.31-.31,0,0,.43-.26.06-.9,0,0,.44-.21.76.35a.62.62,0,0,0,.32-.65h.25l0-.33s.75-.89,1.36-.6a.2.2,0,0,0,.3,0,.42.42,0,0,1,.53.08s.23-.19.11-.34a1,1,0,0,1,.49.62s.74.14.74,1.26a1.38,1.38,0,0,1,1.24,1.36s.23.1.33-.05a5.17,5.17,0,0,0,.66,1.42.68.68,0,0,1,.11.65s-.17.41.25.38c0,0,.65.23,0,1.19A1.53,1.53,0,0,1,82,31.94Z" style="fill:#00b4ec"/><path d="M81.1,32.3s0,.23-.34.17a.44.44,0,0,0-.07.37s-.07.85-1.22-.23l.2,0s-.19-.32-.44-.15a.48.48,0,0,1-.14.67s.15-.12-.3-.37c0,0-.35.32-.78-.17l-.22-.05a3.19,3.19,0,0,0-1-.73s-.26.12-.1.78c0,0-.5-.31-.55-.66a.59.59,0,0,1-.73-.09l0-.38s-.83,1.42-1.13.13c0,0-.72,0-.82.64,0,0-.15-.77.8-1,0,0-.53-.34-1,.5,0,0,.06-.79.71-.92a1,1,0,0,0-1.22-.53.85.85,0,0,1,1-.08.7.7,0,0,0-.54-.39.54.54,0,0,0-.24-.88s.62-.3,1,0c0,0-.11-.48-.91-.75a2,2,0,0,1,1.2.32s0-.38-.73-.57l.27-.09s-.35-.8.24-.67c0,0,.59.12.48-.66,0,0,0-.34.4,0,0,0,.51.24.63-.51a.72.72,0,0,1-.34.92s-.22.15.12.24c0,0,.83.16.44.61,0,0-.12.22.25.27a1.1,1.1,0,0,1,1,1,.82.82,0,0,0,.82.57,1.41,1.41,0,0,1-.67.48,1.48,1.48,0,0,0,.84-.25s.47-.23.61.59a1,1,0,0,0,1.14.74l-.27.35h.32s-.23.26.19.23c0,0,.52-.15.39.46a.42.42,0,0,0,.67-.22S81.21,32,81.1,32.3Z" style="fill:#0077bf"/><path d="M81.89,31.35a1.49,1.49,0,0,0-.15-1s.75-1.07-.21-.81l-.21-.17.12-.13s.39-.84-.19-1.08a2.94,2.94,0,0,1-.35-1.07l-.15,0-.16.26s-.15-1.91-1.76-1.67l.19-.21a1,1,0,0,0-.64-1.28l-.18.09-.12-.15s-.29-.41-.65,0c0,0-.37-.53-1.24.2a1.27,1.27,0,0,1,1.51.63l-.26.12s-.25.17.3.28c0,0,.33-.05.34.68,0,0,0,.51.8.63a.78.78,0,0,1,.77.69.5.5,0,0,0,.41.38s.45.13.44.54c0,0-.28.5.24.59,0,0,.45-.14.16.63,0,0-.12.38.49.33,0,0,.35-.12,0,.54C81.37,30.49,81.67,30.57,81.89,31.35Z" style="fill:#bce3f9"/></symbol></defs><title>Asset 3</title><g id="Layer_2" data-name="Layer 2"><g id="Artwork"><use width="118.92" height="64.28" xlink:href="#munroek_logo"/></g></g></svg>